# xmcd CD database file
#
# Track frame offsets:
#	150
#	12232
#	26427
#	38389
#	58211
#	76050
#	91657
#	109957
#	125931
#	142168
#	156835
#	168917
#	183112
#	195074
#	214896
#	232735
#	248342
#	266642
#	282616
#	298853
#	313520
#	325602
#	343441
#
# Disc length: 4793 seconds
#
# Revision: 0
# Processed by: cddbd v1.4PL0 Copyright (c) Steve Scherf et al.
# Submitted via: CDex 1.50
#
DISCID=4012b717
DTITLE=Alan Jackson - Everything I Love ~Zetroc Tunes Edition~
DYEAR=2003
DGENRE=Country
TTITLE0=Little Bitty
TTITLE1=Everything I Love
TTITLE2=Buicks To The Moon
TTITLE3=Between The Devil And Me
TTITLE4=There Goes
TTITLE5=A House With No Curtains
TTITLE6=Who's Cheatin' Who
TTITLE7=Walk On Rocks
TTITLE8=Must've Had A Ball 
TTITLE9=It's Time You've Learned About Good-Bye
TTITLE10=Little Bitty
TTITLE11=Everything I Love
TTITLE12=Buicks To The Moon
TTITLE13=Between The Devil And Me
TTITLE14=There Goes
TTITLE15=A House With No Curtains
TTITLE16=Who's Cheatin' Who
TTITLE17=Walk On Rocks
TTITLE18=Must've Had A Ball 
TTITLE19=It's Time You've Learned About Good-Bye
TTITLE20=Little Bitty
TTITLE21=There Goes
TTITLE22=Must've Had A Ball 
EXTD=YEAR: 2003
EXTT0=
EXTT1=
EXTT2=
EXTT3=
EXTT4=
EXTT5=
EXTT6=
EXTT7=
EXTT8=
EXTT9=
EXTT10=
EXTT11=
EXTT12=
EXTT13=
EXTT14=
EXTT15=
EXTT16=
EXTT17=
EXTT18=
EXTT19=
EXTT20=
EXTT21=
EXTT22=
PLAYORDER=
